<svg xmlns="http://www.w3.org/2000/svg" viewBox="0 0 846.82 150.13"><path d="M0,147.3V0H65.74c28.05,0,42.4,17.89,42.4,37.54,0,18.33-11.48,30.92-25.39,33.79C98.65,73.76,111,89,111,107.33c0,22.3-14.57,40-42.84,40ZM76.12,43.06C76.12,34,69.5,27.6,58.9,27.6H31.36V58.52H58.9C69.5,58.52,76.12,52.56,76.12,43.06ZM79,102.91c0-9.27-6.62-16.78-18.77-16.78H31.36V119.7H60.22C71.92,119.7,79,113.51,79,102.91Z" style="fill:#e32"/><path d="M226.65,147.3v-21l48.14-61.17H226.65V40.63H313v20.1l-49,62.06h49.91V147.3Z" style="fill:#e32"/><path d="M321.07,147.3v-21l48.14-61.17H321.07V40.63h86.35v20.1l-49,62.06H408.3V147.3Z" style="fill:#e32"/><path d="M424.78,147.3V0H527V27.6H456.14V58.52h53.34V86.13H456.14V147.3Z" style="fill:#e32"/><path d="M516,93.86C516,62.94,539,38,571.22,38c32,0,53.45,23.86,53.45,58.53v6.62H545.38c2,13,12.59,23.85,30.7,23.85,9,0,21.42-3.75,28.27-10.38l12.59,18.56c-10.6,9.71-27.39,14.79-44,14.79C540.53,150,516,128.09,516,93.86ZM571.22,61c-17.44,0-25,12.15-26.06,22.75h52.56C596.84,73.54,589.77,61,571.22,61Z" style="fill:#e32"/><path d="M630.19,93.86c0-30.92,23-55.88,55.21-55.88,32,0,53.44,23.86,53.44,58.53v6.62H659.56c2,13,12.59,23.85,30.7,23.85,9,0,21.42-3.75,28.27-10.38l12.58,18.56c-10.6,9.71-27.38,14.79-43.94,14.79C654.7,150,630.19,128.09,630.19,93.86ZM685.4,61c-17.45,0-25,12.15-26.06,22.75H711.9C711,73.54,704,61,685.4,61Z" style="fill:#e32"/><path d="M745.8,147.51V40.39h43.05c33.73,0,58,20.24,58,53.48S822.58,147.51,789,147.51Zm73.72-53.64c0-16.56-10-30.36-29.55-30.36H772.46v60.88h17.35C808.6,124.39,819.52,109.77,819.52,93.87Z" style="fill:#e32"/><path d="M116.62,104.65v-64h28.22v63.05c0,12.74,7.74,21.93,22.74,21.93,14.83,0,22.57-9.19,22.57-21.93v-63h28.06v63.86c0,26.77-16.13,45.64-50.63,45.64S116.62,131.09,116.62,104.65Z" style="fill:#e32"/></svg>